<svg width="50" height="50" viewBox="0 0 50 50" fill="none" xmlns="http://www.w3.org/2000/svg">
<path d="M32.2916 2.08325H15.625C14.2436 2.08325 12.9189 2.63199 11.9421 3.60874C10.9654 4.58549 10.4166 5.91025 10.4166 7.29158V42.7082C10.4166 44.0896 10.9654 45.4143 11.9421 46.3911C12.9189 47.3678 14.2436 47.9166 15.625 47.9166H32.2916C33.673 47.9166 34.9977 47.3678 35.9745 46.3911C36.9512 45.4143 37.5 44.0896 37.5 42.7082V7.29158C37.5 5.91025 36.9512 4.58549 35.9745 3.60874C34.9977 2.63199 33.673 2.08325 32.2916 2.08325V2.08325ZM23.9583 45.8332C22.2291 45.8332 20.8333 44.4374 20.8333 42.7082C20.8333 40.9791 22.2291 39.5832 23.9583 39.5832C25.6875 39.5832 27.0833 40.9791 27.0833 42.7082C27.0833 44.4374 25.6875 45.8332 23.9583 45.8332ZM33.3333 37.4999H14.5833V8.33325H33.3333V37.4999Z" fill="#717171"/>
</svg>
